:FULLY-SPECIFIED
:FORCE-ALL-JOINTS-BE-3DOF
:DEGREES
985
root 1.3648 15.3447 32.7497 5.98673 -3.05038 4.45105
lfemur 5.19989 0.647232 2.86922
ltibia 5.31596 -0 0
lfoot -31.3415 -13.4161 -0.0128234
ltoes -31.5456 0 0
rfemur -30.2054 -11.5344 -8.19746
rtibia 48.1019 -0 0
rfoot -17.4318 0.840022 -0.0702095
rtoes -43.1343 0 0
lowerback -2.98118 -0.666895 -0.494793
upperback -1.16687 -0.838257 -6.83858
thorax 0.36652 -0.439744 -6.86789
lowerneck -7.14891 0.603863 4.25089
upperneck 2.1398 0.263673 3.8268
head 1.89203 0.273622 0.493527
lclavicle 1.57743e-15 -3.16649e-14 1.80903e-31
lhumerus -58.7118 -44.5679 112.675
lradius 55.6394 -0 0
lwrist 25.6856 0 0
lhand 40.2924 24.5569 -0.00849987
lfingers 7.12502 -0 0
lthumb 62.6215 35.1319 -0.0304351
rclavicle 1.57743e-15 -3.16649e-14 1.80903e-31
rhumerus -1.48853 -2.78181 -4.70099
rradius 37.4015 -0 0
rwrist -14.717 0 0
rhand -21.1442 -39.0424 0.079732
rfingers 7.12502 -0 0
rthumb 5.23364 -68.8687 0.081264
986
root 1.36386 15.3429 32.749 5.9775 -3.05571 4.4384
lfemur 5.22192 0.649213 2.89056
ltibia 5.30027 -0 0
lfoot -31.352 -13.386 -0.0129725
ltoes -31.5727 0 0
rfemur -30.2066 -11.5672 -8.18005
rtibia 48.1146 -0 0
rfoot -17.475 0.880086 -0.0710259
rtoes -43.114 0 0
lowerback -2.97264 -0.66072 -0.495615
upperback -1.1605 -0.829945 -6.82953
thorax 0.369365 -0.435391 -6.85739
lowerneck -7.15325 0.604099 4.27105
upperneck 2.14023 0.261833 3.82776
head 1.89299 0.272987 0.490364
lclavicle 1.57067e-15 -3.1005e-14 1.83006e-31
lhumerus -58.7071 -44.5884 112.701
lradius 55.6396 -0 0
lwrist 25.6845 0 0
lhand 40.2667 24.565 -0.00859867
lfingers 7.12502 -0 0
lthumb 62.6 35.167 -0.0307889
rclavicle 1.57067e-15 -3.1005e-14 1.83006e-31
rhumerus -1.44693 -2.97672 -4.64519
rradius 37.3044 -0 0
rwrist -14.6603 0 0
rhand -21.2373 -39.0635 0.0806597
rfingers 7.12502 -0 0
rthumb 5.14376 -68.891 0.0822094
987
root 1.36291 15.3412 32.7484 5.96827 -3.06104 4.42575
lfemur 5.24395 0.651186 2.9119
ltibia 5.28458 -0 0
lfoot -31.3625 -13.3558 -0.013116
ltoes -31.5998 0 0
rfemur -30.2077 -11.6 -8.16264
rtibia 48.1273 -0 0
rfoot -17.5183 0.92015 -0.071812
rtoes -43.0937 0 0
lowerback -2.9641 -0.654546 -0.496436
upperback -1.15413 -0.821634 -6.82047
thorax 0.372211 -0.431038 -6.8469
lowerneck -7.15759 0.604337 4.29122
upperneck 2.14066 0.259994 3.82871
head 1.89395 0.272352 0.487201
lclavicle 1.56391e-15 -3.03451e-14 1.8503e-31
lhumerus -58.7024 -44.6089 112.727
lradius 55.6398 -0 0
lwrist 25.6835 0 0
lhand 40.2409 24.5732 -0.00869381
lfingers 7.12502 -0 0
lthumb 62.5786 35.202 -0.0311296
rclavicle 1.56391e-15 -3.03451e-14 1.8503e-31
rhumerus -1.40551 -3.17167 -4.58953
rradius 37.2072 -0 0
rwrist -14.6036 0 0
rhand -21.3304 -39.0846 0.0815531
rfingers 7.12502 -0 0
rthumb 5.05387 -68.9133 0.0831199
988
root 1.36196 15.3395 32.7477 5.95904 -3.06638 4.41309
lfemur 5.26597 0.65315 2.93324
ltibia 5.26889 -0 0
lfoot -31.373 -13.3257 -0.013254
ltoes -31.6269 0 0
rfemur -30.2089 -11.6328 -8.14523
rtibia 48.14 -0 0
rfoot -17.5615 0.960216 -0.0725679
rtoes -43.0733 0 0
lowerback -2.95556 -0.648371 -0.497257
upperback -1.14775 -0.813324 -6.81141
thorax 0.375058 -0.426686 -6.8364
lowerneck -7.16194 0.604577 4.31138
upperneck 2.14109 0.258155 3.82967
head 1.89491 0.271717 0.484038
lclavicle 1.55714e-15 -2.96852e-14 1.86977e-31
lhumerus -58.6978 -44.6294 112.753
lradius 55.64 -0 0
lwrist 25.6824 0 0
lhand 40.2152 24.5813 -0.00878529
lfingers 7.12502 -0 0
lthumb 62.5572 35.237 -0.0314573
rclavicle 1.55714e-15 -2.96852e-14 1.86977e-31
rhumerus -1.36427 -3.36666 -4.53399
rradius 37.11 -0 0
rwrist -14.5469 0 0
rhand -21.4235 -39.1058 0.0824122
rfingers 7.12502 -0 0
rthumb 4.96399 -68.9356 0.0839954
989
root 1.36101 15.3378 32.747 5.94981 -3.07171 4.40044
lfemur 5.288 0.655106 2.95458
ltibia 5.2532 -0 0
lfoot -31.3835 -13.2956 -0.0133865
ltoes -31.654 0 0
rfemur -30.2101 -11.6656 -8.12781
rtibia 48.1527 -0 0
rfoot -17.6047 1.00028 -0.0732936
rtoes -43.053 0 0
lowerback -2.94702 -0.642196 -0.498076
upperback -1.14138 -0.805015 -6.80235
thorax 0.377905 -0.422335 -6.8259
lowerneck -7.16628 0.604818 4.33155
upperneck 2.14152 0.256315 3.83062
head 1.89587 0.271082 0.480875
lclavicle 1.55038e-15 -2.90253e-14 1.88846e-31
lhumerus -58.6932 -44.6499 112.78
lradius 55.6403 -0 0
lwrist 25.6813 0 0
lhand 40.1895 24.5895 -0.00887312
lfingers 7.12502 -0 0
lthumb 62.5358 35.2721 -0.0317718
rclavicle 1.55038e-15 -2.90253e-14 1.88846e-31
rhumerus -1.32321 -3.56169 -4.47859
rradius 37.0128 -0 0
rwrist -14.4902 0 0
rhand -21.5165 -39.1269 0.0832369
rfingers 7.12502 -0 0
rthumb 4.87411 -68.9579 0.0848359
990
root 1.36006 15.3361 32.7464 5.94059 -3.07705 4.38779
lfemur 5.31003 0.657054 2.97593
ltibia 5.23751 -0 0
lfoot -31.394 -13.2655 -0.0135135
ltoes -31.6811 0 0
rfemur -30.2113 -11.6984 -8.11039
rtibia 48.1654 -0 0
rfoot -17.6479 1.04035 -0.0739891
rtoes -43.0327 0 0
lowerback -2.93848 -0.636021 -0.498895
upperback -1.135 -0.796707 -6.79329
thorax 0.380754 -0.417984 -6.81541
lowerneck -7.17062 0.605061 4.35171
upperneck 2.14195 0.254476 3.83157
head 1.89683 0.270447 0.477711
lclavicle 1.54362e-15 -2.83653e-14 1.90637e-31
lhumerus -58.6886 -44.6704 112.806
lradius 55.6405 -0 0
lwrist 25.6803 0 0
lhand 40.1638 24.5976 -0.00895728
lfingers 7.12502 -0 0
lthumb 62.5143 35.3071 -0.0320732
rclavicle 1.54362e-15 -2.83653e-14 1.90637e-31
rhumerus -1.28233 -3.75676 -4.42331
rradius 36.9156 -0 0
rwrist -14.4335 0 0
rhand -21.6096 -39.1481 0.0840272
rfingers 7.12502 -0 0
rthumb 4.78422 -68.9802 0.0856414
991
root 1.35912 15.3343 32.7457 5.93136 -3.08238 4.37514
lfemur 5.33206 0.658994 2.99727
ltibia 5.22182 -0 0
lfoot -31.4045 -13.2353 -0.013635
ltoes -31.7082 0 0
rfemur -30.2125 -11.7312 -8.09297
rtibia 48.1781 -0 0
rfoot -17.6912 1.08042 -0.0746543
rtoes -43.0123 0 0
lowerback -2.92994 -0.629846 -0.499713
upperback -1.12862 -0.7884 -6.78423
thorax 0.383603 -0.413634 -6.80491
lowerneck -7.17497 0.605305 4.37188
upperneck 2.14238 0.252637 3.83253
head 1.89779 0.269812 0.474548
lclavicle 1.53686e-15 -2.77054e-14 1.9235e-31
lhumerus -58.684 -44.6909 112.832
lradius 55.6407 -0 0
lwrist 25.6792 0 0
lhand 40.138 24.6058 -0.00903779
lfingers 7.12502 -0 0
lthumb 62.4929 35.3422 -0.0323615
rclavicle 1.53686e-15 -2.77054e-14 1.9235e-31
rhumerus -1.24164 -3.95187 -4.36816
rradius 36.8185 -0 0
rwrist -14.3768 0 0
rhand -21.7027 -39.1692 0.0847833
rfingers 7.12502 -0 0
rthumb 4.69434 -69.0025 0.0864119
